<svg id="Layer_1" data-name="Layer 1" xmlns="http://www.w3.org/2000/svg" viewBox="0 0 200 200"><defs><style>.cls-1{fill:#fff9fb;}</style></defs><path class="cls-1" d="M50.09,131.71q-4.47,0-6.39-3c-1.27-2-1.24-4.43.11-7.34L71.06,61.67a13.06,13.06,0,0,1,4-5.27A9.76,9.76,0,0,1,86,56.4a12.24,12.24,0,0,1,3.93,5.27l27.47,59.72q2,4.47.16,7.39c-1.24,2-3.25,2.93-6,2.93a8.3,8.3,0,0,1-5.59-1.7,13.89,13.89,0,0,1-3.46-5.32L98,114.47H63l-4.36,10.22a15.63,15.63,0,0,1-3.41,5.37A7.32,7.32,0,0,1,50.09,131.71ZM80.32,73.27,68.51,101.59H92.57l-12-28.32Z"/><path class="cls-1" d="M145.85,131.93q-22,0-22-21.4v-20h-4.47q-6.28,0-6.28-6t6.28-6.07h4.47V70.39q0-8.19,8.09-8.19t8,8.19v8.09H150q6.17,0,6.17,6.07t-6.17,6H139.89v19.38q0,4.47,2.07,6.71c1.39,1.49,3.6,2.23,6.66,2.23a13.48,13.48,0,0,0,3-.32,19.27,19.27,0,0,1,2.55-.42,2.87,2.87,0,0,1,2.45,1c.64.71,1,2.17,1,4.37a11,11,0,0,1-.85,4.52,5.24,5.24,0,0,1-3,2.72,19.88,19.88,0,0,1-3.78.9A27.31,27.31,0,0,1,145.85,131.93Z"/><path class="cls-1" d="M187.06,136.9a10.51,10.51,0,0,1-11.2-11.06,10.55,10.55,0,0,1,3-7.79,11.05,11.05,0,0,1,8.17-3,10.62,10.62,0,0,1,8,3,10.82,10.82,0,0,1,2.89,7.79,11.16,11.16,0,0,1-2.89,8A10.48,10.48,0,0,1,187.06,136.9Z"/><path class="cls-1" d="M177.53,159a9,9,0,0,1-9.61-9.5,9.05,9.05,0,0,1,2.6-6.68,9.48,9.48,0,0,1,7-2.6,9.12,9.12,0,0,1,6.91,2.6,9.29,9.29,0,0,1,2.48,6.68,9.64,9.64,0,0,1-2.48,6.85A9,9,0,0,1,177.53,159Z"/><path class="cls-1" d="M163.68,175.24a6.87,6.87,0,0,1-7.33-7.25,6.9,6.9,0,0,1,2-5.1,7.22,7.22,0,0,1,5.35-2,6.94,6.94,0,0,1,5.27,2,7,7,0,0,1,1.9,5.1,7.32,7.32,0,0,1-1.9,5.23A6.86,6.86,0,0,1,163.68,175.24Z"/><path class="cls-1" d="M186,52.41a100.36,100.36,0,0,0-11.78-16.79C152,10.13,118.4-1.72,85.12,3,51.62,7.8,22.49,31.34,9.58,62.38a98.07,98.07,0,0,0,95.66,135.5,97.65,97.65,0,0,0,52.44-18.65,10,10,0,0,1-3.47-2.28,10.54,10.54,0,0,1-2.91-6.16A87.26,87.26,0,0,1,25.53,145.51C8.6,118.12,8.78,82.84,25,55.22,39.21,31,65.28,15,93.2,12.74a88.44,88.44,0,0,1,73.5,30.4,87.82,87.82,0,0,1,20.15,67.18h0A16.32,16.32,0,0,1,197.18,114,100,100,0,0,0,186,52.41Z"/></svg>